<svg width="2289" height="639" viewBox="0 0 2289 639" fill="none" xmlns="http://www.w3.org/2000/svg">
<path d="M89.0561 62.3398C72.1031 76.3521 63.033 95.3134 59.5103 114.346L87.7945 142.63C91.3173 123.598 100.387 104.636 117.34 90.6241L89.0561 62.3398Z" fill="black"/>
<path d="M145.486 43.0078C126.454 43.0079 106.095 48.2565 89.0562 62.3398L117.34 90.6241C134.38 76.5408 154.738 71.2922 173.77 71.2921L145.486 43.0078Z" fill="black"/>
<path d="M145.486 93.0078V43.0078L173.77 71.2921V121.292L145.486 93.0078Z" fill="black"/>
<path d="M108.623 123.728C112.207 103.76 125.518 93.0079 145.486 93.0078L173.77 121.292C153.802 121.292 140.491 132.044 136.907 152.012L108.623 123.728Z" fill="black"/>
<path d="M256.59 43.0078H145.486L173.77 71.2921H284.875L256.59 43.0078Z" fill="black"/>
<path d="M59.5103 114.346L1.61768 411.49L29.9019 439.775L87.7945 142.63L59.5103 114.346Z" fill="black"/>
<path d="M145.486 93.0078H256.59L284.875 121.292H173.77L145.486 93.0078Z" fill="black"/>
<path d="M256.59 43.0078V93.0078L284.875 121.292V71.2921L256.59 43.0078Z" fill="black"/>
<path d="M256.59 93.0078L258.815 93.0146L287.099 121.299L284.875 121.292L256.59 93.0078Z" fill="black"/>
<path d="M50.7661 420.688L108.623 123.728L136.907 152.012L79.0504 448.973L50.7661 420.688Z" fill="black"/>
<path d="M397.174 82.334C360.115 52.5277 308.466 43.0078 256.59 43.0078L284.875 71.2921C336.75 71.2921 388.399 80.812 425.459 110.618L397.174 82.334Z" fill="black"/>
<path d="M243.791 179.024H215.63L243.915 207.309H272.075L243.791 179.024Z" fill="black"/>
<path d="M1.61768 411.49L1.55225 411.854L29.8365 440.139L29.9019 439.775L1.61768 411.49Z" fill="black"/>
<path d="M215.63 179.024L203.342 241.488L231.627 269.773L243.915 207.309L215.63 179.024Z" fill="black"/>
<path d="M258.815 93.0146C309.948 93.3219 349.493 104.265 372.358 127.138L400.623 155.404C377.756 132.544 338.219 121.606 287.099 121.299L258.815 93.0146Z" fill="black"/>
<path d="M270.709 186.854C265.325 181.471 256.189 179.024 243.791 179.024L272.075 207.309C284.473 207.309 293.609 209.755 298.994 215.138L270.709 186.854Z" fill="black"/>
<path d="M1.55236 411.854C-1.52152 428.98 -1.51095 453.977 15.7164 475.12L44.0007 503.404C26.7733 482.262 26.7628 457.265 29.8366 440.139L1.55236 411.854Z" fill="black"/>
<path d="M203.342 241.488H231.502L259.787 269.773H231.627L203.342 241.488Z" fill="black"/>
<path d="M275.535 210.256C277.52 199.586 275.777 191.922 270.713 186.858L298.994 215.138C304.06 220.203 305.805 227.867 303.819 238.54L275.535 210.256Z" fill="black"/>
<path d="M50.6069 421.617L50.7661 420.688L79.0504 448.973L78.8912 449.901L50.6069 421.617Z" fill="black"/>
<path d="M231.502 241.488C255.19 241.488 270.94 233.054 275.333 211.302L303.618 239.586C299.224 261.338 283.475 269.773 259.787 269.773L231.502 241.488Z" fill="black"/>
<path d="M275.333 211.302L275.535 210.256L303.819 238.54L303.618 239.586L275.333 211.302Z" fill="black"/>
<path d="M55.6626 444.847C50.6517 439.835 48.9162 432.016 50.6072 421.617L78.8915 449.901C77.2004 460.3 78.936 468.119 83.9468 473.132L55.6626 444.847Z" fill="black"/>
<path d="M407.831 91.8818C404.516 88.5683 400.965 85.3827 397.174 82.334L425.459 110.618C429.249 113.667 432.8 116.853 436.115 120.166L407.831 91.8818Z" fill="black"/>
<path d="M74.9266 451.4C66.2916 451.253 59.8424 449.026 55.6665 444.851L83.9469 473.132C88.1227 477.309 94.5732 479.537 103.211 479.685L74.9266 451.4Z" fill="black"/>
<path d="M208.974 327.504H186.958L215.243 355.788H237.258L208.974 327.504Z" fill="black"/>
<path d="M75.854 451.408L74.9263 451.4L103.211 479.685L104.138 479.692L75.854 451.408Z" fill="black"/>
<path d="M25.6192 485.023C41.7766 498.136 61.1882 501.408 75.854 501.408L104.138 529.692C86.3152 529.692 61.4831 524.86 44.0006 503.404L25.6192 485.023C22.1408 482.2 18.8132 478.921 15.7163 475.12L25.6192 485.023Z" fill="black"/>
<path d="M372.358 127.138C391.471 146.257 398.929 173.711 391.759 210.256L420.043 238.54C427.213 201.995 419.755 174.541 400.642 155.422L372.358 127.138Z" fill="black"/>
<path d="M186.958 327.504L168.526 420.688L196.81 448.973L215.243 355.788L186.958 327.504Z" fill="black"/>
<path d="M442.675 161.522C438.616 135.164 427.292 111.354 407.879 91.9302L436.115 120.166C455.558 139.598 466.897 163.427 470.96 189.807L442.675 161.522Z" fill="black"/>
<path d="M132.174 451.408H75.854L104.138 479.692H160.459L132.174 451.408Z" fill="black"/>
<path d="M133.105 451.4L132.174 451.408L160.459 479.692L161.389 479.685L133.105 451.4Z" fill="black"/>
<path d="M168.526 420.688C164.998 440.344 152.54 451.07 133.105 451.4L161.389 479.685C180.824 479.354 193.282 468.628 196.81 448.973L168.526 420.688Z" fill="black"/>
<path d="M237.134 428.88L208.974 327.504L237.258 355.788L265.419 457.164L237.134 428.88Z" fill="black"/>
<path d="M75.854 501.408H132.174L160.459 529.692H104.138L75.854 501.408Z" fill="black"/>
<path d="M391.758 210.256C382.542 257.872 354.382 290.128 313.934 308.56L342.218 336.844C382.666 318.412 410.827 286.156 420.043 238.54L391.758 210.256Z" fill="black"/>
<path d="M561.318 130.048C518.858 130.048 477.857 141.294 442.675 161.522L470.96 189.807C506.141 169.578 547.142 158.332 589.602 158.332L561.318 130.048Z" fill="black"/>
<path d="M132.174 501.408C151.25 501.408 171.699 496.127 188.738 481.751L217.022 510.035C199.983 524.412 179.535 529.692 160.459 529.692L132.174 501.408Z" fill="black"/>
<path d="M188.738 481.751C193.528 477.71 197.655 473.28 201.188 468.585L229.472 496.869C225.939 501.564 221.812 505.994 217.022 510.035L188.738 481.751Z" fill="black"/>
<path d="M244.849 443.09C241.301 439.54 238.719 434.823 237.134 428.88L265.419 457.164C267.003 463.107 269.585 467.824 273.133 471.374L244.849 443.09Z" fill="black"/>
<path d="M209.589 478.55C206.439 475.413 203.648 472.071 201.188 468.585L229.472 496.869C231.874 500.274 234.592 503.54 237.652 506.612L237.873 506.834C237.799 506.76 237.725 506.686 237.652 506.612L209.589 478.55Z" fill="black"/>
<path d="M313.934 308.56L353.871 414.544L382.155 442.828L342.218 336.844L313.934 308.56Z" fill="black"/>
<path d="M209.589 478.55C212.582 481.53 215.9 484.327 219.566 486.889L247.85 515.173C244.184 512.611 240.867 509.815 237.873 506.834L209.589 478.55Z" fill="black"/>
<path d="M268.091 451.402C258.115 451.268 250.334 448.572 244.856 443.096L273.133 471.374C278.612 476.854 286.396 479.553 296.375 479.687L268.091 451.402Z" fill="black"/>
<path d="M268.878 451.408L268.09 451.402L296.375 479.687L297.163 479.692L268.878 451.408Z" fill="black"/>
<path d="M384.678 345.424C384.678 250.192 465.574 180.048 561.318 180.048L589.602 208.332C493.858 208.332 412.963 278.476 412.962 373.708L384.678 345.424Z" fill="black"/>
<path d="M219.566 486.889C235.736 498.188 253.665 501.408 268.878 501.408L297.163 529.692C281.949 529.692 264.02 526.472 247.85 515.173L219.566 486.889Z" fill="black"/>
<path d="M325.71 451.408H268.878L297.163 479.692H353.995L325.71 451.408Z" fill="black"/>
<path d="M673.593 161.241C643.595 139.727 604.308 130.048 561.318 130.048L589.602 158.332C632.592 158.332 671.879 168.011 701.878 189.525L673.593 161.241Z" fill="black"/>
<path d="M353.871 414.544C361.935 435.712 350.153 450.926 326.83 451.396L355.114 479.681C378.437 479.21 390.219 463.996 382.155 442.828L353.871 414.544Z" fill="black"/>
<path d="M326.83 451.396L325.71 451.408L353.995 479.692L355.114 479.681L326.83 451.396Z" fill="black"/>
<path d="M414.296 423.522C394.643 403.862 384.433 376.816 384.678 345.424L412.962 373.708C412.717 405.1 422.927 432.146 442.58 451.806L414.296 423.522Z" fill="black"/>
<path d="M537.254 251.201C522.609 254.61 509.376 266.506 502.951 284.496L531.235 312.78C537.66 294.791 550.893 282.894 565.539 279.485L537.254 251.201Z" fill="black"/>
<path d="M545.958 250.192C543.03 250.192 540.115 250.535 537.254 251.201L565.539 279.485C568.4 278.82 571.314 278.477 574.243 278.477L545.958 250.192Z" fill="black"/>
<path d="M268.878 501.408H325.71L353.995 529.692H297.163L268.878 501.408Z" fill="black"/>
<path d="M561.318 180.048C604.209 180.048 635.715 191.615 654.224 210.131L682.486 238.394C663.974 219.89 632.477 208.332 589.602 208.332L561.318 180.048Z" fill="black"/>
<path d="M502.951 284.496C511.879 288.464 523.209 290.991 536.011 291.145L564.296 319.429C551.493 319.275 540.163 316.748 531.235 312.78L502.951 284.496Z" fill="black"/>
<path d="M537.254 291.152V251.201L565.539 279.485V319.437L537.254 291.152Z" fill="black"/>
<path d="M566.759 256.646C562.416 252.304 555.051 250.192 545.958 250.192L574.243 278.477C583.335 278.477 590.7 280.589 595.043 284.93L566.759 256.646Z" fill="black"/>
<path d="M536.011 291.145L537.254 291.152L565.539 319.437L564.296 319.429L536.011 291.145Z" fill="black"/>
<path d="M571.047 267.6C571.047 263.037 569.509 259.397 566.763 256.65L595.044 284.931C597.792 287.678 599.331 291.32 599.331 295.884L571.047 267.6Z" fill="black"/>
<path d="M491.686 338.768V343.376L519.97 371.66V367.052L491.686 338.768Z" fill="black"/>
<path d="M537.254 291.152C556.406 291.152 570.597 283.214 571.036 268.314L599.32 296.599C598.881 311.498 584.691 319.437 565.539 319.437L537.254 291.152Z" fill="black"/>
<path d="M571.036 268.314L571.046 267.6L599.331 295.884L599.32 296.599L571.036 268.314Z" fill="black"/>
<path d="M325.71 501.408C347.398 501.408 373.826 494.368 391.417 471.656L419.701 499.941C402.11 522.652 375.683 529.692 353.995 529.692L325.71 501.408Z" fill="black"/>
<path d="M687.966 173.2C683.536 168.926 678.737 164.93 673.593 161.241L701.878 189.525C707.021 193.214 711.821 197.21 716.25 201.485L687.966 173.2Z" fill="black"/>
<path d="M491.686 343.376C491.686 355.856 495.515 366.092 502.57 373.145L530.846 401.42C523.796 394.368 519.97 384.136 519.97 371.66L491.686 343.376Z" fill="black"/>
<path d="M391.417 471.656C391.678 471.318 391.935 470.978 392.189 470.638L420.473 498.922C420.219 499.262 419.963 499.602 419.701 499.941L391.417 471.656Z" fill="black"/>
<path d="M552.102 351.056C526.502 351.056 506.022 346.448 491.686 338.768L519.97 367.052C534.306 374.732 554.786 379.34 580.386 379.34L552.102 351.056Z" fill="black"/>
<path d="M687.966 173.2C689.024 174.222 690.061 175.259 691.077 176.311L716.25 201.485C718.579 203.732 720.806 206.057 722.926 208.454L694.642 180.17C693.485 178.862 692.296 177.575 691.077 176.311L687.966 173.2Z" fill="black"/>
<path d="M502.57 373.145C509.408 379.979 519.275 383.824 531.622 383.824L559.907 412.108C547.559 412.108 537.692 408.264 530.855 401.429L502.57 373.145Z" fill="black"/>
<path d="M654.224 210.131C666.867 222.78 673.446 238.673 673.446 256.336L701.73 284.62C701.73 266.957 695.152 251.065 682.508 238.416L654.224 210.131Z" fill="black"/>
<path d="M508.729 457.544C467.261 457.171 435.378 444.596 414.322 423.548L442.58 451.806C463.635 472.869 495.528 485.455 537.013 485.828L508.729 457.544Z" fill="black"/>
<path d="M816.915 130.048C769.998 130.048 727.667 147.887 694.642 180.17L722.926 208.454C755.952 176.171 798.283 158.332 845.199 158.332L816.915 130.048Z" fill="black"/>
<path d="M671.911 270.672C663.207 315.216 620.71 351.056 552.102 351.056L580.386 379.34C648.994 379.34 691.491 343.5 700.195 298.956L671.911 270.672Z" fill="black"/>
<path d="M531.623 383.824C542.374 383.824 554.15 381.264 564.902 376.656L593.186 404.941C582.434 409.548 570.659 412.108 559.907 412.108L531.623 383.824Z" fill="black"/>
<path d="M673.446 256.336C673.446 260.944 672.935 265.552 671.911 270.672L700.195 298.956C701.219 293.836 701.73 289.228 701.73 284.62L673.446 256.336Z" fill="black"/>
<path d="M392.189 470.638C423.896 495.613 465.098 507.552 510.63 507.552L538.915 535.836C493.382 535.836 452.18 523.898 420.473 498.922L392.189 470.638Z" fill="black"/>
<path d="M564.902 376.656C582.822 368.976 593.063 367.44 604.327 375.12L632.611 403.404C621.347 395.724 611.106 397.261 593.186 404.941L564.902 376.656Z" fill="black"/>
<path d="M510.63 457.552L508.729 457.544L537.013 485.828L538.915 485.836L510.63 457.552Z" fill="black"/>
<path d="M880.09 143.994C860.94 134.705 839.517 130.048 816.915 130.048L845.199 158.332C867.801 158.332 889.224 162.99 908.375 172.278L880.09 143.994Z" fill="black"/>
<path d="M604.327 375.12L619.686 385.36L647.97 413.645L632.611 403.404L604.327 375.12Z" fill="black"/>
<path d="M678.674 318.8C696.594 225.616 754.451 180.048 816.915 180.048L845.199 208.332C782.735 208.332 724.879 253.9 706.959 347.084L678.674 318.8Z" fill="black"/>
<path d="M816.915 180.048L818.23 180.056L846.514 208.34L845.199 208.332L816.915 180.048Z" fill="black"/>
<path d="M614.145 429.272C583.687 448.125 546.414 457.552 510.63 457.552L538.915 485.836C574.699 485.836 611.971 476.41 642.429 457.557L614.145 429.272Z" fill="black"/>
<path d="M619.686 385.36C621.386 386.582 622.909 387.87 624.252 389.212L652.536 417.496C651.194 416.154 649.67 414.866 647.97 413.645L619.686 385.36Z" fill="black"/>
<path d="M624.261 389.221C635.849 400.813 633.941 416.441 615.59 428.368L643.875 456.652C662.23 444.722 664.134 429.089 652.536 417.496L624.261 389.221Z" fill="black"/>
<path d="M919.827 136.192C907.273 136.192 893.377 138.14 880.09 143.994L908.375 172.278C921.662 166.424 935.557 164.477 948.111 164.477L919.827 136.192Z" fill="black"/>
<path d="M615.59 428.368L614.145 429.272L642.429 457.557L643.875 456.652L615.59 428.368Z" fill="black"/>
<path d="M818.23 180.056C845.792 180.37 868.37 190.584 884.499 209.232L904.043 228.777C907.137 231.444 910.052 234.359 912.783 237.517L904.043 228.777C888.866 215.694 869.41 208.601 846.514 208.34L818.23 180.056Z" fill="black"/>
<path d="M510.63 507.552C555.289 507.552 602.69 495.723 642.343 470.609L670.628 498.894C630.974 524.007 583.573 535.836 538.915 535.836L510.63 507.552Z" fill="black"/>
<path d="M699.458 434.247C677.191 411.971 667.829 373.627 678.674 318.8L706.958 347.084C696.113 401.912 705.475 440.255 727.742 462.531L699.458 434.247Z" fill="black"/>
<path d="M971.026 136.192H919.827L948.111 164.477H999.31L971.026 136.192Z" fill="black"/>
<path d="M884.499 209.232C887.523 194.616 899.477 186.45 918.896 186.198L947.18 214.483C927.761 214.734 915.807 222.901 912.783 237.517L884.499 209.232Z" fill="black"/>
<path d="M918.896 186.198L919.827 186.192L948.111 214.477L947.18 214.483L918.896 186.198Z" fill="black"/>
<path d="M842.002 264.016C818.45 264.016 799.506 280.912 792.338 318.8L820.623 347.084C827.791 309.196 846.735 292.3 870.287 292.3L842.002 264.016Z" fill="black"/>
<path d="M642.343 470.609L642.592 470.451L670.877 498.735L670.628 498.894L642.343 470.609Z" fill="black"/>
<path d="M642.592 470.451L642.839 470.29L671.124 498.574L670.877 498.735L642.592 470.451Z" fill="black"/>
<path d="M642.839 470.29C647.177 467.471 651.554 464.154 655.728 460.341L684.012 488.625C679.838 492.439 675.461 495.755 671.124 498.574L642.839 470.29Z" fill="black"/>
<path d="M655.728 460.341C658.435 463.669 661.269 466.805 664.218 469.753L692.461 497.996C689.527 495.06 686.706 491.938 684.012 488.625L655.728 460.341Z" fill="black"/>
<path d="M842.002 264.016C852.754 264.016 865.042 269.136 871.698 276.816L897.162 302.281C898.184 303.175 899.129 304.117 899.982 305.101L897.162 302.281C890.203 296.193 879.661 292.3 870.287 292.3L842.002 264.016Z" fill="black"/>
<path d="M919.827 186.192H971.026L999.31 214.477H948.111L919.827 186.192Z" fill="black"/>
<path d="M971.026 186.192V136.192L999.31 164.477V214.477L971.026 186.192Z" fill="black"/>
<path d="M1017.16 149.503C1001.9 138.943 984.47 136.192 971.026 136.192L999.31 164.477C1012.75 164.477 1030.19 167.228 1045.44 177.787L1017.16 149.503Z" fill="black"/>
<path d="M792.339 318.8C787.612 342.12 790.449 357.488 798.822 365.857L827.1 394.135C818.732 385.764 815.897 370.399 820.623 347.084L792.339 318.8Z" fill="black"/>
<path d="M971.026 186.192L971.954 186.2L1000.24 214.484L999.31 214.477L971.026 186.192Z" fill="black"/>
<path d="M971.954 186.2C980.591 186.348 987.042 188.576 991.217 192.753L1019.5 221.034C1015.32 216.859 1008.87 214.632 1000.24 214.484L971.954 186.2Z" fill="black"/>
<path d="M762.642 457.552C736.942 457.552 715.055 449.838 699.479 434.267L727.743 462.531C743.321 478.115 765.215 485.836 790.927 485.836L762.642 457.552Z" fill="black"/>
<path d="M798.822 365.857C803.84 370.873 810.846 373.376 819.403 373.571L847.687 401.856C839.13 401.66 832.124 399.158 827.107 394.142L798.822 365.857Z" fill="black"/>
<path d="M855.314 360.784L871.698 276.816L899.982 305.101L883.598 389.068L855.314 360.784Z" fill="black"/>
<path d="M1065.1 136.192C1049.15 136.192 1032.23 139.886 1017.16 149.503L1045.44 177.787C1060.52 168.17 1077.43 164.477 1093.38 164.477L1065.1 136.192Z" fill="black"/>
<path d="M819.403 373.571L820.499 373.584L848.783 401.868L847.687 401.856L819.403 373.571Z" fill="black"/>
<path d="M991.218 192.753C996.377 197.913 998.064 206.049 996.114 216.912L1024.4 245.196C1026.35 234.333 1024.66 226.197 1019.5 221.037L991.218 192.753Z" fill="black"/>
<path d="M664.218 469.752C690.7 496.223 726.466 507.552 762.642 507.552L790.926 535.836C754.75 535.836 718.985 524.507 692.502 498.037L664.218 469.752Z" fill="black"/>
<path d="M820.499 373.584C831.25 373.584 845.586 368.464 855.314 360.784L883.598 389.068C873.87 396.748 859.535 401.868 848.783 401.868L820.499 373.584Z" fill="black"/>
<path d="M1065.1 186.192V136.192L1093.38 164.477V214.477L1065.1 186.192Z" fill="black"/>
<path d="M1116.3 136.192H1065.1L1093.38 164.477H1144.58L1116.3 136.192Z" fill="black"/>
<path d="M842.002 428.368C817.938 447.312 790.802 457.552 762.642 457.552L790.926 485.836C819.086 485.836 846.223 475.596 870.287 456.652L842.002 428.368Z" fill="black"/>
<path d="M1028.75 216.912C1032.27 197.256 1044.73 186.531 1064.17 186.2L1092.45 214.484C1073.02 214.815 1060.56 225.54 1057.03 245.196L1028.75 216.912Z" fill="black"/>
<path d="M1064.17 186.2L1065.1 186.192L1093.38 214.477L1092.45 214.484L1064.17 186.2Z" fill="black"/>
<path d="M762.642 507.552C767.102 507.552 771.525 507.373 775.909 507.022L804.193 535.307C799.81 535.657 795.386 535.836 790.926 535.836L762.642 507.552Z" fill="black"/>
<path d="M1065.1 186.192H1116.3L1144.58 214.477H1093.38L1065.1 186.192Z" fill="black"/>
<path d="M1116.3 136.192V186.192L1144.58 214.477V164.477L1116.3 136.192Z" fill="black"/>
<path d="M775.909 507.022L773.452 519.762L801.736 548.046L804.193 535.307L775.909 507.022Z" fill="black"/>
<path d="M1006.73 329.04L1028.75 216.912L1057.03 245.196L1035.01 357.324L1006.73 329.04Z" fill="black"/>
<path d="M1116.3 136.192C1133.84 136.192 1158.16 140.871 1175.59 161.459L1195.82 181.694C1198.62 184.06 1201.32 186.731 1203.87 189.743L1195.82 181.694C1179.47 167.886 1159.55 164.477 1144.58 164.477L1116.3 136.192Z" fill="black"/>
<path d="M1116.3 186.192L1117.23 186.2L1145.51 214.484L1144.58 214.477L1116.3 186.192Z" fill="black"/>
<path d="M822.546 529.232L842.002 428.368L870.287 456.652L850.831 557.517L822.546 529.232Z" fill="black"/>
<path d="M1117.23 186.2C1125.86 186.348 1132.31 188.576 1136.49 192.753L1164.77 221.034C1160.59 216.859 1154.15 214.632 1145.51 214.484L1117.23 186.2Z" fill="black"/>
<path d="M773.452 519.762C770.035 536.923 769.664 562.001 786.814 583.373L815.098 611.657C797.948 590.286 798.319 565.207 801.736 548.046L773.452 519.762Z" fill="black"/>
<path d="M1181.59 155.85C1179.46 157.647 1177.46 159.52 1175.59 161.459L1203.87 189.743C1205.75 187.804 1207.74 185.931 1209.87 184.134L1181.59 155.85Z" fill="black"/>
<path d="M996.114 216.912L935.186 529.232L963.47 557.517L1024.4 245.196L996.114 216.912Z" fill="black"/>
<path d="M1136.49 192.753C1141.65 197.913 1143.34 206.049 1141.39 216.912L1169.67 245.196C1171.62 234.333 1169.93 226.198 1164.77 221.037L1136.49 192.753Z" fill="black"/>
<path d="M1238.15 136.192C1219.08 136.192 1198.63 141.473 1181.59 155.85L1209.87 184.134C1226.91 169.757 1247.36 164.477 1266.44 164.477L1238.15 136.192Z" fill="black"/>
<path d="M827.047 553.46C821.892 548.303 820.308 540.144 822.547 529.232L850.831 557.517C848.593 568.428 850.176 576.587 855.332 581.744L827.047 553.46Z" fill="black"/>
<path d="M846.195 559.944C837.607 559.798 831.183 557.595 827.052 553.464L855.332 581.744C859.463 585.877 865.889 588.082 874.479 588.229L846.195 559.944Z" fill="black"/>
<path d="M1028.11 426.369C1006.14 404.388 998.482 371.347 1006.73 329.04L1035.01 357.324C1026.77 399.631 1034.42 432.673 1056.39 454.653L1028.11 426.369Z" fill="black"/>
<path d="M1238.15 186.192V136.192L1266.44 164.477V214.477L1238.15 186.192Z" fill="black"/>
<path d="M1289.35 136.192H1238.15L1266.44 164.477H1317.64L1289.35 136.192Z" fill="black"/>
<path d="M847.123 559.952L846.195 559.944L874.479 588.229L875.407 588.236L847.123 559.952Z" fill="black"/>
<path d="M1141.39 216.912L1116.81 341.84L1145.09 370.124L1169.67 245.196L1141.39 216.912Z" fill="black"/>
<path d="M797.375 593.934C813.484 606.805 832.758 609.952 847.123 609.952L875.407 638.236C857.723 638.236 832.599 633.466 815.098 611.657L797.375 593.934C793.652 590.96 790.099 587.467 786.814 583.373L797.375 593.934Z" fill="black"/>
<path d="M1201.8 216.912C1205.33 197.256 1217.79 186.531 1237.22 186.2L1265.51 214.484C1246.07 214.815 1233.61 225.54 1230.09 245.196L1201.8 216.912Z" fill="black"/>
<path d="M1237.22 186.2L1238.15 186.192L1266.44 214.477L1265.51 214.484L1237.22 186.2Z" fill="black"/>
<path d="M1438.84 0C1383.91 0 1327.34 36.4756 1315.49 98.4668L1343.78 126.751C1355.63 64.7599 1412.19 28.2843 1467.13 28.2843L1438.84 0Z" fill="black"/>
<path d="M898.322 559.952H847.123L875.407 588.236H926.606L898.322 559.952Z" fill="black"/>
<path d="M1315.49 98.4668C1312.81 112.492 1312.8 126.582 1315.61 139.965L1343.89 168.249C1341.08 154.866 1341.09 140.776 1343.78 126.751L1315.49 98.4668Z" fill="black"/>
<path d="M1315.61 139.965C1306.32 137.119 1297.16 136.192 1289.35 136.192L1317.64 164.477C1325.45 164.477 1334.6 165.403 1343.89 168.249L1315.61 139.965Z" fill="black"/>
<path d="M1238.15 186.192H1289.35L1317.64 214.477H1266.44L1238.15 186.192Z" fill="black"/>
<path d="M1289.35 136.192V186.192L1317.64 214.477V164.477L1289.35 136.192Z" fill="black"/>
<path d="M899.253 559.944L898.322 559.952L926.606 588.236L927.538 588.229L899.253 559.944Z" fill="black"/>
<path d="M934.988 530.161C930.757 549.226 918.38 559.619 899.253 559.944L927.538 588.229C946.664 587.903 959.041 577.51 963.272 558.445L934.988 530.161Z" fill="black"/>
<path d="M935.186 529.232L934.988 530.161L963.272 558.445L963.47 557.517L935.186 529.232Z" fill="black"/>
<path d="M1177.23 341.84L1201.8 216.912L1230.09 245.196L1205.51 370.124L1177.23 341.84Z" fill="black"/>
<path d="M1364.45 108.67L1364.6 107.856L1392.89 136.141L1392.74 136.954L1364.45 108.67Z" fill="black"/>
<path d="M1116.81 341.84C1114.8 353.043 1116.82 361.667 1122.23 367.08L1150.51 395.36C1145.1 389.947 1143.08 381.324 1145.09 370.124L1116.81 341.84Z" fill="black"/>
<path d="M1289.35 186.192L1290.28 186.2L1318.57 214.484L1317.64 214.477L1289.35 186.192Z" fill="black"/>
<path d="M1364.6 107.856C1371.26 73.0404 1404.03 50 1438.84 50L1467.13 78.2843C1432.31 78.2843 1399.54 101.325 1392.89 136.141L1364.6 107.856Z" fill="black"/>
<path d="M847.123 609.952H898.322L926.606 638.236H875.407L847.123 609.952Z" fill="black"/>
<path d="M1438.84 50L1439.66 50.0039L1467.94 78.2882L1467.13 78.2843L1438.84 50Z" fill="black"/>
<path d="M1290.28 186.2C1298.92 186.348 1305.37 188.576 1309.55 192.753L1337.83 221.034C1333.65 216.859 1327.2 214.632 1318.57 214.484L1290.28 186.2Z" fill="black"/>
<path d="M1438.84 0C1466.93 2.72435e-05 1496.01 9.40275 1516.86 31.8135L1540.34 55.2986C1541.98 56.8269 1543.59 58.4261 1545.14 60.0977L1540.34 55.2986C1519.96 36.3366 1493.12 28.2843 1467.13 28.2843L1438.84 0Z" fill="black"/>
<path d="M984.261 538.806L998.278 466.951L1026.56 495.235L1012.55 567.09L984.261 538.806Z" fill="black"/>
<path d="M1375.97 150.939C1365.97 140.941 1361.29 126.352 1364.45 108.67L1392.74 136.954C1389.58 154.636 1394.26 169.226 1404.25 179.223L1375.97 150.939Z" fill="black"/>
<path d="M1122.23 367.08C1126.32 371.164 1132.34 373.42 1140.02 373.575L1168.3 401.859C1160.62 401.704 1154.6 399.448 1150.52 395.364L1122.23 367.08Z" fill="black"/>
<path d="M1140.02 373.575L1140.87 373.584L1169.16 401.868L1168.3 401.859L1140.02 373.575Z" fill="black"/>
<path d="M1140.87 373.584C1159.31 373.584 1173.64 361.808 1177.23 341.84L1205.51 370.124C1201.93 390.092 1187.59 401.868 1169.16 401.868L1140.87 373.584Z" fill="black"/>
<path d="M1439.66 50.0039C1456.07 50.1741 1469.92 55.4966 1479.19 64.7732L1507.46 93.0467C1498.19 83.7767 1484.35 78.4583 1467.94 78.2882L1439.66 50.0039Z" fill="black"/>
<path d="M1309.55 192.753C1314.71 197.913 1316.39 206.049 1314.44 216.912L1342.73 245.196C1344.68 234.333 1342.99 226.197 1337.83 221.037L1309.55 192.753Z" fill="black"/>
<path d="M1122.37 457.543C1079.92 457.196 1048.11 446.36 1028.13 426.386L1056.39 454.653C1076.37 474.638 1108.19 485.48 1150.66 485.827L1122.37 457.543Z" fill="black"/>
<path d="M984.215 539.043L984.261 538.806L1012.55 567.09L1012.5 567.327L984.215 539.043Z" fill="black"/>
<path d="M984.167 539.279L984.215 539.043L1012.5 567.327L1012.45 567.564L984.167 539.279Z" fill="black"/>
<path d="M898.322 609.952C917.465 609.952 937.772 604.64 954.754 590.459L983.039 618.743C966.056 632.925 945.75 638.236 926.606 638.236L898.322 609.952Z" fill="black"/>
<path d="M954.754 590.459C971.599 576.393 980.413 557.579 984.167 539.279L1012.45 567.564C1008.7 585.863 999.883 604.677 983.039 618.743L954.754 590.459Z" fill="black"/>
<path d="M998.278 466.951C1031.14 496.298 1076.58 507.552 1124.49 507.552L1152.77 535.836C1104.87 535.836 1059.43 524.582 1026.56 495.235L998.278 466.951Z" fill="black"/>
<path d="M1416.31 165.712C1399.55 165.712 1385.4 160.372 1375.98 150.949L1404.25 179.223C1413.68 188.652 1427.83 193.996 1444.6 193.996L1416.31 165.712Z" fill="black"/>
<path d="M1350.27 216.912C1353.85 196.944 1366.65 186.192 1386.62 186.192L1414.9 214.477C1394.93 214.477 1382.13 225.228 1378.55 245.196L1350.27 216.912Z" fill="black"/>
<path d="M1479.19 64.7732C1489.34 74.9234 1494 89.8077 1490.55 107.856L1518.84 136.141C1522.29 118.092 1517.62 103.208 1507.47 93.0575L1479.19 64.7732Z" fill="black"/>
<path d="M1314.44 216.912L1292.43 329.04L1320.71 357.324L1342.73 245.196L1314.44 216.912Z" fill="black"/>
<path d="M1124.49 457.552L1122.37 457.543L1150.66 485.827L1152.77 485.836L1124.49 457.552Z" fill="black"/>
<path d="M1490.39 108.67C1483.39 143.031 1450.86 165.712 1416.31 165.712L1444.6 193.996C1479.14 193.996 1511.67 171.315 1518.68 136.954L1490.39 108.67Z" fill="black"/>
<path d="M1386.62 186.192H1437.82L1466.1 214.477H1414.9L1386.62 186.192Z" fill="black"/>
<path d="M1490.55 107.856L1490.39 108.67L1518.68 136.954L1518.84 136.141L1490.55 107.856Z" fill="black"/>
<path d="M1292.43 329.04C1276.55 410.448 1215.11 457.552 1124.49 457.552L1152.77 485.836C1243.4 485.836 1304.84 438.732 1320.71 357.324L1292.43 329.04Z" fill="black"/>
<path d="M1539.66 117.245C1545.58 86.3269 1538.52 55.0952 1516.86 31.8135L1545.14 60.0977C1566.8 83.3794 1573.86 114.611 1567.95 145.529L1539.66 117.245Z" fill="black"/>
<path d="M1437.82 186.192C1446.92 186.192 1453.69 188.428 1458.01 192.753L1486.29 221.033C1481.97 216.711 1475.2 214.477 1466.1 214.477L1437.82 186.192Z" fill="black"/>
<path d="M1310.33 420.688L1350.27 216.912L1378.55 245.196L1338.61 448.973L1310.33 420.688Z" fill="black"/>
<path d="M1458.01 192.753C1463.17 197.914 1464.86 206.049 1462.91 216.912L1491.19 245.196C1493.14 234.334 1491.45 226.198 1486.29 221.038L1458.01 192.753Z" fill="black"/>
<path d="M1519.53 164.025C1529.19 150.703 1536.27 135.024 1539.66 117.245L1567.95 145.529C1564.55 163.308 1557.47 178.987 1547.81 192.31L1519.53 164.025Z" fill="black"/>
<path d="M1124.49 507.552C1178.42 507.552 1227.78 493.469 1266.89 463.524L1295.17 491.809C1256.06 521.753 1206.7 535.836 1152.77 535.836L1124.49 507.552Z" fill="black"/>
<path d="M1642.42 130.048C1598.24 130.048 1555.64 142.223 1519.53 164.025L1547.81 192.31C1583.92 170.507 1626.52 158.332 1670.7 158.332L1642.42 130.048Z" fill="black"/>
<path d="M1266.89 463.524C1267.07 463.387 1267.24 463.246 1267.42 463.108L1295.71 491.393C1295.53 491.531 1295.35 491.671 1295.17 491.809L1266.89 463.524Z" fill="black"/>
<path d="M1267.42 463.108C1269.52 467.194 1272.11 471.223 1275.28 475.12L1303.57 503.404C1300.39 499.507 1297.8 495.478 1295.71 491.393L1267.42 463.108Z" fill="black"/>
<path d="M1315.23 444.848C1310.07 439.687 1308.38 431.552 1310.33 420.688L1338.61 448.973C1336.67 459.836 1338.35 467.972 1343.51 473.132L1315.23 444.848Z" fill="black"/>
<path d="M1462.91 216.912L1422.97 420.688L1451.25 448.973L1491.19 245.196L1462.91 216.912Z" fill="black"/>
<path d="M1334.49 451.4C1325.86 451.253 1319.41 449.026 1315.23 444.851L1343.51 473.132C1347.69 477.309 1354.14 479.537 1362.77 479.685L1334.49 451.4Z" fill="black"/>
<path d="M1335.42 451.408L1334.49 451.4L1362.77 479.685L1363.7 479.692L1335.42 451.408Z" fill="black"/>
<path d="M1285.18 485.023C1301.34 498.136 1320.75 501.408 1335.42 501.408L1363.7 529.692C1345.88 529.692 1321.05 524.86 1303.57 503.404L1285.18 485.023C1281.71 482.2 1278.38 478.921 1275.28 475.12L1285.18 485.023Z" fill="black"/>
<path d="M1386.62 451.408H1335.42L1363.7 479.692H1414.9L1386.62 451.408Z" fill="black"/>
<path d="M1465.78 345.424C1465.78 250.192 1546.67 180.048 1642.42 180.048L1670.7 208.332C1574.96 208.332 1494.06 278.476 1494.06 373.708L1465.78 345.424Z" fill="black"/>
<path d="M1642.42 180.048L1644.1 180.054L1672.39 208.338L1670.7 208.332L1642.42 180.048Z" fill="black"/>
<path d="M1387.55 451.4L1386.62 451.408L1414.9 479.692L1415.83 479.685L1387.55 451.4Z" fill="black"/>
<path d="M1422.8 421.617C1419.04 440.682 1406.68 451.075 1387.55 451.4L1415.83 479.685C1434.96 479.359 1447.33 468.966 1451.08 449.901L1422.8 421.617Z" fill="black"/>
<path d="M1422.97 420.688L1422.8 421.617L1451.08 449.901L1451.25 448.973L1422.97 420.688Z" fill="black"/>
<path d="M1754.69 161.241C1724.7 139.727 1685.41 130.048 1642.42 130.048L1670.7 158.332C1713.69 158.332 1752.98 168.011 1782.98 189.525L1754.69 161.241Z" fill="black"/>
<path d="M1335.42 501.408H1386.62L1414.9 529.692H1363.7L1335.42 501.408Z" fill="black"/>
<path d="M1495.4 423.522C1475.74 403.862 1465.53 376.816 1465.78 345.424L1494.06 373.708C1493.82 405.101 1504.03 432.146 1523.68 451.806L1495.4 423.522Z" fill="black"/>
<path d="M1618.35 251.202C1603.71 254.611 1590.48 266.506 1584.05 284.496L1612.33 312.78C1618.76 294.791 1631.99 282.895 1646.64 279.486L1618.35 251.202Z" fill="black"/>
<path d="M1627.06 250.192C1624.13 250.192 1621.22 250.536 1618.35 251.202L1646.64 279.486C1649.5 278.821 1652.41 278.477 1655.34 278.477L1627.06 250.192Z" fill="black"/>
<path d="M1644.1 180.054C1686.14 180.353 1717.06 191.858 1735.32 210.13L1763.59 238.395C1745.32 220.134 1714.4 208.637 1672.39 208.338L1644.1 180.054Z" fill="black"/>
<path d="M1584.05 284.496C1592.98 288.464 1604.31 290.991 1617.11 291.145L1645.4 319.429C1632.59 319.275 1621.26 316.748 1612.33 312.78L1584.05 284.496Z" fill="black"/>
<path d="M1618.35 291.152V251.202L1646.64 279.486V319.437L1618.35 291.152Z" fill="black"/>
<path d="M1647.86 256.646C1643.52 252.304 1636.15 250.192 1627.06 250.192L1655.34 278.477C1664.44 278.477 1671.8 280.589 1676.14 284.93L1647.86 256.646Z" fill="black"/>
<path d="M1386.62 501.408C1405.69 501.408 1426.14 496.127 1443.18 481.751L1471.47 510.035C1454.43 524.412 1433.98 529.692 1414.9 529.692L1386.62 501.408Z" fill="black"/>
<path d="M1617.11 291.145L1618.35 291.152L1646.64 319.437L1645.4 319.429L1617.11 291.145Z" fill="black"/>
<path d="M1652.15 267.599C1652.15 263.037 1650.61 259.397 1647.86 256.649L1676.14 284.93C1678.89 287.678 1680.43 291.319 1680.43 295.884L1652.15 267.599Z" fill="black"/>
<path d="M1572.79 338.768V343.376L1601.07 371.66V367.052L1572.79 338.768Z" fill="black"/>
<path d="M1618.35 291.152C1637.81 291.152 1652.15 282.96 1652.15 267.6L1680.43 295.884C1680.43 311.244 1666.09 319.437 1646.64 319.437L1618.35 291.152Z" fill="black"/>
<path d="M1760.5 165.655C1758.62 164.139 1756.68 162.667 1754.69 161.241L1782.98 189.525C1784.97 190.951 1786.9 192.424 1788.79 193.94L1760.5 165.655Z" fill="black"/>
<path d="M1461.25 460.07C1461.45 460.267 1461.65 460.464 1461.86 460.66L1490.14 488.945C1489.94 488.748 1489.74 488.552 1489.53 488.355L1461.25 460.07Z" fill="black"/>
<path d="M1443.18 481.751C1450.78 475.339 1456.71 467.95 1461.25 460.07L1489.53 488.355C1485 496.234 1479.07 503.623 1471.47 510.035L1443.18 481.751Z" fill="black"/>
<path d="M1461.86 460.66C1462.25 461.044 1462.65 461.426 1463.05 461.806L1491.34 490.09C1490.94 489.71 1490.54 489.328 1490.14 488.944L1461.86 460.66Z" fill="black"/>
<path d="M1463.05 461.806C1463.26 462.003 1463.47 462.199 1463.68 462.395L1491.96 490.679C1491.75 490.483 1491.55 490.287 1491.34 490.09L1463.05 461.806Z" fill="black"/>
<path d="M1770.28 155.85C1766.65 158.913 1763.4 162.199 1760.5 165.655L1788.79 193.94C1791.69 190.484 1794.94 187.197 1798.57 184.134L1770.28 155.85Z" fill="black"/>
<path d="M1463.68 462.395C1463.79 462.5 1463.91 462.606 1464.02 462.712L1492.3 490.996C1492.19 490.891 1492.08 490.785 1491.96 490.679L1463.68 462.395Z" fill="black"/>
<path d="M1572.79 343.376C1572.79 355.857 1576.62 366.093 1583.67 373.145L1611.95 401.421C1604.9 394.368 1601.07 384.136 1601.07 371.66L1572.79 343.376Z" fill="black"/>
<path d="M1826.85 136.192C1807.77 136.192 1787.32 141.473 1770.28 155.85L1798.57 184.134C1815.61 169.757 1836.05 164.477 1855.13 164.477L1826.85 136.192Z" fill="black"/>
<path d="M1633.2 351.056C1607.6 351.056 1587.12 346.448 1572.79 338.768L1601.07 367.052C1615.41 374.732 1635.89 379.34 1661.49 379.34L1633.2 351.056Z" fill="black"/>
<path d="M1583.67 373.145C1590.51 379.98 1600.37 383.824 1612.72 383.824L1641.01 412.108C1628.66 412.108 1618.79 408.264 1611.96 401.429L1583.67 373.145Z" fill="black"/>
<path d="M1735.32 210.13C1747.97 222.779 1754.55 238.672 1754.55 256.336L1782.83 284.62C1782.83 266.956 1776.25 251.064 1763.61 238.414L1735.32 210.13Z" fill="black"/>
<path d="M1591.73 457.552C1549.33 457.552 1516.8 444.915 1495.42 423.547L1523.68 451.806C1545.06 473.19 1577.6 485.836 1620.01 485.836L1591.73 457.552Z" fill="black"/>
<path d="M1826.85 186.192V136.192L1855.13 164.477V214.477L1826.85 186.192Z" fill="black"/>
<path d="M1878.05 136.192H1826.85L1855.13 164.477H1906.33L1878.05 136.192Z" fill="black"/>
<path d="M1753.01 270.672C1744.31 315.216 1701.81 351.056 1633.2 351.056L1661.49 379.34C1730.09 379.34 1772.59 343.5 1781.29 298.956L1753.01 270.672Z" fill="black"/>
<path d="M1612.72 383.824C1623.47 383.824 1635.25 381.264 1646 376.656L1674.29 404.941C1663.53 409.549 1651.76 412.108 1641.01 412.108L1612.72 383.824Z" fill="black"/>
<path d="M1790.49 216.912C1794.02 197.256 1806.48 186.531 1825.92 186.2L1854.2 214.484C1834.76 214.815 1822.31 225.54 1818.78 245.196L1790.49 216.912Z" fill="black"/>
<path d="M1825.92 186.2L1826.85 186.192L1855.13 214.477L1854.2 214.484L1825.92 186.2Z" fill="black"/>
<path d="M1464.02 462.712C1496.76 493.095 1541.62 507.552 1591.73 507.552L1620.01 535.836C1569.91 535.836 1525.04 521.379 1492.3 490.996L1464.02 462.712Z" fill="black"/>
<path d="M1754.55 256.336C1754.55 260.944 1754.03 265.552 1753.01 270.672L1781.29 298.956C1782.32 293.836 1782.83 289.228 1782.83 284.62L1754.55 256.336Z" fill="black"/>
<path d="M1826.85 186.192H1878.05L1906.33 214.477H1855.13L1826.85 186.192Z" fill="black"/>
<path d="M1918.95 146.032C1904.9 138.212 1889.77 136.192 1878.05 136.192L1906.33 164.477C1918.06 164.477 1933.19 166.496 1947.23 174.316L1918.95 146.032Z" fill="black"/>
<path d="M1646 376.656C1663.92 368.976 1674.16 367.44 1685.43 375.12L1713.71 403.404C1702.45 395.724 1692.21 397.261 1674.29 404.941L1646 376.656Z" fill="black"/>
<path d="M1878.05 186.192L1878.97 186.199L1907.26 214.483L1906.33 214.477L1878.05 186.192Z" fill="black"/>
<path d="M1685.43 375.12L1700.79 385.36L1729.07 413.645L1713.71 403.404L1685.43 375.12Z" fill="black"/>
<path d="M1878.97 186.199C1887.88 186.344 1894.46 188.593 1898.62 192.755L1926.9 221.034C1922.74 216.876 1916.16 214.629 1907.26 214.483L1878.97 186.199Z" fill="black"/>
<path d="M1695.24 429.272C1664.79 448.125 1627.51 457.552 1591.73 457.552L1620.01 485.836C1655.8 485.836 1693.07 476.409 1723.53 457.557L1695.24 429.272Z" fill="black"/>
<path d="M1750.56 420.688L1790.49 216.912L1818.78 245.196L1778.84 448.973L1750.56 420.688Z" fill="black"/>
<path d="M1700.79 385.36C1702.49 386.582 1704.01 387.87 1705.35 389.211L1733.64 417.496C1732.29 416.154 1730.77 414.866 1729.07 413.645L1700.79 385.36Z" fill="black"/>
<path d="M1987.1 130.048C1964.51 130.048 1940.86 136.074 1918.95 146.032L1947.23 174.316C1969.14 164.358 1992.79 158.332 2015.39 158.332L1987.1 130.048Z" fill="black"/>
<path d="M1898.62 192.755C1903.48 197.616 1905.04 205.088 1903.13 214.864L1931.42 243.148C1933.32 233.372 1931.76 225.901 1926.9 221.039L1898.62 192.755Z" fill="black"/>
<path d="M1705.36 389.221C1716.95 400.813 1715.04 416.44 1696.69 428.368L1724.97 456.652C1743.33 444.721 1745.23 429.089 1733.64 417.496L1705.36 389.221Z" fill="black"/>
<path d="M1696.69 428.368L1695.24 429.272L1723.53 457.557L1724.97 456.652L1696.69 428.368Z" fill="black"/>
<path d="M1903.13 214.864C1927.2 193.872 1960.48 180.048 1987.1 180.048L2015.39 208.332C1988.76 208.332 1955.48 222.157 1931.42 243.149L1903.13 214.864Z" fill="black"/>
<path d="M1591.73 507.552C1633.5 507.552 1677.68 497.2 1715.66 475.308L1743.95 503.592C1705.96 525.484 1661.79 535.836 1620.01 535.836L1591.73 507.552Z" fill="black"/>
<path d="M2053.38 148.29C2033.26 135.089 2010.13 130.048 1987.1 130.048L2015.39 158.332C2038.41 158.332 2061.54 163.373 2081.66 176.574L2053.38 148.29Z" fill="black"/>
<path d="M1920.03 264.016C1910.81 264.016 1899.55 269.648 1891.36 276.816L1919.64 305.101C1927.83 297.933 1939.1 292.3 1948.32 292.3L1920.03 264.016Z" fill="black"/>
<path d="M1755.45 444.848C1750.3 439.687 1748.61 431.552 1750.56 420.688L1778.84 448.973C1776.89 459.836 1778.58 467.971 1783.74 473.132L1755.45 444.848Z" fill="black"/>
<path d="M1931.7 267.86C1929.1 265.264 1925.19 264.016 1920.03 264.016L1948.32 292.3C1953.47 292.3 1957.39 293.548 1959.98 296.144L1931.7 267.86Z" fill="black"/>
<path d="M1987.1 180.048C2007.58 180.048 2023.16 185.801 2033.97 196.619L2062.24 224.89C2051.43 214.08 2035.86 208.332 2015.39 208.332L1987.1 180.048Z" fill="black"/>
<path d="M2058.42 151.822C2056.79 150.605 2055.11 149.426 2053.38 148.29L2081.66 176.574C2083.39 177.71 2085.07 178.889 2086.7 180.107L2058.42 151.822Z" fill="black"/>
<path d="M1934.37 288.592C1936.51 278.508 1935.54 271.707 1931.7 267.862L1959.98 296.144C1963.83 299.989 1964.79 306.791 1962.65 316.876L1934.37 288.592Z" fill="black"/>
<path d="M1774.72 451.4C1766.08 451.253 1759.63 449.026 1755.46 444.851L1783.74 473.132C1787.92 477.309 1794.37 479.537 1803 479.685L1774.72 451.4Z" fill="black"/>
<path d="M1891.36 276.816L1863.2 420.688L1891.48 448.973L1919.64 305.101L1891.36 276.816Z" fill="black"/>
<path d="M1775.65 451.408L1774.72 451.4L1803 479.685L1803.93 479.692L1775.65 451.408Z" fill="black"/>
<path d="M1725.23 484.872C1741.42 498.111 1760.92 501.408 1775.65 501.408L1803.93 529.692C1786.16 529.692 1761.42 524.887 1743.95 503.592L1725.23 484.872C1721.87 482.13 1718.66 478.962 1715.66 475.308L1725.23 484.872Z" fill="black"/>
<path d="M2145.31 130.048C2113.47 130.048 2084.28 138.464 2058.42 151.822L2086.7 180.107C2112.56 166.749 2141.76 158.332 2173.59 158.332L2145.31 130.048Z" fill="black"/>
<path d="M2033.97 196.619C2039.92 202.571 2044.43 210.056 2047.52 218.96L2075.8 247.244C2072.71 238.34 2068.21 230.855 2062.26 224.903L2033.97 196.619Z" fill="black"/>
<path d="M1826.85 451.408H1775.65L1803.93 479.692H1855.13L1826.85 451.408Z" fill="black"/>
<path d="M1908.77 420.688L1934.37 288.592L1962.65 316.876L1937.05 448.973L1908.77 420.688Z" fill="black"/>
<path d="M1827.78 451.4L1826.85 451.408L1855.13 479.692L1856.06 479.685L1827.78 451.4Z" fill="black"/>
<path d="M1863.2 420.688C1859.67 440.344 1847.21 451.07 1827.78 451.4L1856.06 479.685C1875.5 479.354 1887.95 468.629 1891.48 448.973L1863.2 420.688Z" fill="black"/>
<path d="M2047.52 218.96C2075.68 195.408 2108.96 180.048 2145.31 180.048L2173.59 208.332C2137.24 208.332 2103.96 223.692 2075.8 247.244L2047.52 218.96Z" fill="black"/>
<path d="M1775.65 501.408H1826.85L1855.13 529.692H1803.93L1775.65 501.408Z" fill="black"/>
<path d="M2227.76 161.187C2205.96 139.396 2176.16 130.048 2145.31 130.048L2173.59 158.332C2204.44 158.332 2234.25 167.68 2256.05 189.471L2227.76 161.187Z" fill="black"/>
<path d="M2078.24 264.016C2069.02 264.016 2057.76 269.648 2049.57 276.816L2077.85 305.101C2086.04 297.933 2097.31 292.3 2106.52 292.3L2078.24 264.016Z" fill="black"/>
<path d="M1913.66 444.848C1908.5 439.687 1906.82 431.552 1908.77 420.688L1937.05 448.973C1935.1 459.836 1936.79 467.971 1941.95 473.132L1913.66 444.848Z" fill="black"/>
<path d="M1826.85 501.408C1845.23 501.408 1864.89 496.5 1881.55 483.271L1909.83 511.556C1893.18 524.784 1873.52 529.692 1855.13 529.692L1826.85 501.408Z" fill="black"/>
<path d="M2089.91 267.86C2087.31 265.264 2083.4 264.016 2078.24 264.016L2106.52 292.3C2111.68 292.3 2115.59 293.548 2118.19 296.144L2089.91 267.86Z" fill="black"/>
<path d="M2145.31 180.048C2165.86 180.048 2181.65 185.832 2192.49 196.684L2220.77 224.96C2209.92 214.113 2194.13 208.332 2173.59 208.332L2145.31 180.048Z" fill="black"/>
<path d="M2092.57 288.592C2094.71 278.508 2093.75 271.707 2089.91 267.862L2118.19 296.144C2122.04 299.989 2123 306.791 2120.86 316.876L2092.57 288.592Z" fill="black"/>
<path d="M1932.93 451.4C1924.29 451.253 1917.84 449.026 1913.67 444.851L1941.95 473.132C1946.12 477.309 1952.57 479.537 1961.21 479.685L1932.93 451.4Z" fill="black"/>
<path d="M2049.57 276.816L2021.41 420.688L2049.69 448.973L2077.85 305.101L2049.57 276.816Z" fill="black"/>
<path d="M1933.85 451.408L1932.93 451.4L1961.21 479.685L1962.14 479.692L1933.85 451.408Z" fill="black"/>
<path d="M1881.55 483.271C1898.09 497.848 1918.56 501.408 1933.85 501.408L1962.14 529.692C1946.84 529.692 1926.38 526.132 1909.83 511.556L1881.55 483.271Z" fill="black"/>
<path d="M2243.06 180.813C2238.59 173.405 2233.47 166.892 2227.8 161.221L2256.05 189.471C2261.73 195.15 2266.87 201.674 2271.34 209.098L2243.06 180.813Z" fill="black"/>
<path d="M1985.05 451.408H1933.85L1962.14 479.692H2013.34L1985.05 451.408Z" fill="black"/>
<path d="M2066.97 420.688L2092.57 288.592L2120.86 316.876L2095.26 448.973L2066.97 420.688Z" fill="black"/>
<path d="M1985.98 451.4L1985.05 451.408L2013.34 479.692L2014.27 479.685L1985.98 451.4Z" fill="black"/>
<path d="M2192.5 196.684C2209.22 213.418 2214.2 242.199 2206.75 280.4L2235.04 308.685C2242.49 270.483 2237.51 241.702 2220.78 224.969L2192.5 196.684Z" fill="black"/>
<path d="M2021.41 420.688C2017.88 440.344 2005.42 451.07 1985.98 451.4L2014.27 479.685C2033.7 479.354 2046.16 468.629 2049.69 448.973L2021.41 420.688Z" fill="black"/>
<path d="M1933.85 501.408H1985.05L2013.34 529.692H1962.14L1933.85 501.408Z" fill="black"/>
<path d="M2255.84 289.895C2263.04 252.934 2262.6 213.265 2243.06 180.813L2271.34 209.098C2290.88 241.549 2291.32 281.218 2284.12 318.179L2255.84 289.895Z" fill="black"/>
<path d="M2071.87 444.848C2066.71 439.687 2065.02 431.552 2066.97 420.688L2095.26 448.973C2093.31 459.836 2095 467.971 2100.16 473.132L2071.87 444.848Z" fill="black"/>
<path d="M1985.05 501.408C2003.44 501.408 2023.1 496.5 2039.76 483.271L2068.04 511.556C2051.39 524.784 2031.73 529.692 2013.34 529.692L1985.05 501.408Z" fill="black"/>
<path d="M2091.13 451.4C2082.5 451.253 2076.05 449.026 2071.87 444.851L2100.16 473.132C2104.33 477.309 2110.78 479.537 2119.42 479.685L2091.13 451.4Z" fill="black"/>
<path d="M2092.06 451.408L2091.13 451.4L2119.42 479.685L2120.35 479.692L2092.06 451.408Z" fill="black"/>
<path d="M2206.75 280.4L2179.61 420.688L2207.9 448.973L2235.03 308.685L2206.75 280.4Z" fill="black"/>
<path d="M2039.76 483.271C2056.3 497.848 2076.76 501.408 2092.06 501.408L2120.35 529.692C2105.05 529.692 2084.59 526.132 2068.04 511.556L2039.76 483.271Z" fill="black"/>
<path d="M2143.26 451.408H2092.06L2120.35 479.692H2171.55L2143.26 451.408Z" fill="black"/>
<path d="M2144.19 451.4L2143.26 451.408L2171.55 479.692L2172.48 479.685L2144.19 451.4Z" fill="black"/>
<path d="M2179.44 421.617C2175.69 440.682 2163.32 451.075 2144.19 451.4L2172.48 479.685C2191.6 479.36 2203.97 468.966 2207.72 449.901L2179.44 421.617Z" fill="black"/>
<path d="M2179.61 420.688L2179.44 421.617L2207.72 449.901L2207.9 448.973L2179.61 420.688Z" fill="black"/>
<path d="M2228.73 430.051L2255.84 289.896L2284.12 318.18L2257.01 458.335L2228.73 430.051Z" fill="black"/>
<path d="M2092.06 501.408H2143.26L2171.55 529.692H2120.35L2092.06 501.408Z" fill="black"/>
<path d="M2143.26 501.408C2162.34 501.408 2182.79 496.127 2199.83 481.751L2228.11 510.035C2211.07 524.412 2190.62 529.692 2171.55 529.692L2143.26 501.408Z" fill="black"/>
<path d="M2199.83 481.751C2216.65 467.552 2225.31 448.57 2228.73 430.051L2257.01 458.335C2253.59 476.855 2244.94 495.836 2228.11 510.035L2199.83 481.751Z" fill="black"/>
<path d="M1438.84 0C1466.93 2.72435e-05 1496.01 9.40275 1516.86 31.8135C1538.52 55.0952 1545.58 86.3269 1539.66 117.245C1536.27 135.024 1529.19 150.703 1519.53 164.025C1555.64 142.223 1598.24 130.048 1642.42 130.048C1685.41 130.048 1724.7 139.727 1754.69 161.241C1756.68 162.667 1758.62 164.139 1760.5 165.655C1763.4 162.199 1766.65 158.913 1770.28 155.85C1787.32 141.473 1807.77 136.192 1826.85 136.192V186.192L1825.92 186.2C1806.48 186.531 1794.02 197.256 1790.49 216.912L1750.56 420.688C1747.03 440.344 1755.41 451.07 1774.72 451.4L1775.65 451.408H1826.85L1827.78 451.4C1847.21 451.07 1859.67 440.344 1863.2 420.688L1891.36 276.816C1899.55 269.648 1910.81 264.016 1920.03 264.016C1932.83 264.016 1937.95 271.696 1934.37 288.592L1908.77 420.688C1905.24 440.344 1913.62 451.07 1932.93 451.4L1933.85 451.408H1985.05L1985.98 451.4C2005.42 451.07 2017.88 440.344 2021.41 420.688L2049.57 276.816C2057.76 269.648 2069.02 264.016 2078.24 264.016C2091.04 264.016 2096.16 271.696 2092.57 288.592L2066.97 420.688C2063.45 440.344 2071.83 451.07 2091.13 451.4L2092.06 451.408H2143.26L2144.19 451.4C2163.32 451.075 2175.69 440.682 2179.44 421.617L2179.61 420.688L2206.75 280.4C2219.04 217.424 2197.53 180.048 2145.31 180.048C2108.96 180.048 2075.68 195.408 2047.52 218.96C2038.81 193.872 2018.85 180.048 1987.1 180.048C1960.48 180.048 1927.2 193.872 1903.13 214.864C1906.66 196.72 1898.28 186.514 1878.97 186.199L1878.05 186.192H1826.85V136.192H1878.05C1889.77 136.192 1904.9 138.212 1918.95 146.032C1940.86 136.074 1964.51 130.048 1987.1 130.048C2010.13 130.048 2033.26 135.089 2053.38 148.29C2055.11 149.426 2056.79 150.605 2058.42 151.822C2084.28 138.464 2113.47 130.048 2145.31 130.048C2184.19 130.048 2221.43 144.903 2243.06 180.813C2262.6 213.265 2263.04 252.934 2255.84 289.895L2255.84 289.896L2228.73 430.051C2225.31 448.57 2216.65 467.552 2199.83 481.751C2182.79 496.127 2162.34 501.408 2143.26 501.408H2092.06C2076.76 501.408 2056.3 497.848 2039.76 483.271C2023.1 496.5 2003.44 501.408 1985.05 501.408H1933.85C1918.56 501.408 1898.1 497.848 1881.55 483.271C1864.89 496.5 1845.23 501.408 1826.85 501.408H1775.65C1757.88 501.408 1733.14 496.603 1715.66 475.308C1677.68 497.2 1633.5 507.552 1591.73 507.552C1541.62 507.552 1496.76 493.095 1464.02 462.712C1463.08 461.841 1462.16 460.959 1461.25 460.07C1456.71 467.95 1450.78 475.339 1443.18 481.751C1426.14 496.127 1405.69 501.408 1386.62 501.408H1335.42C1317.6 501.408 1292.76 496.576 1275.28 475.12C1272.11 471.223 1269.52 467.194 1267.42 463.108C1267.24 463.246 1267.07 463.387 1266.89 463.524C1227.78 493.469 1178.42 507.552 1124.49 507.552C1076.58 507.552 1031.14 496.298 998.278 466.951L984.261 538.806L984.215 539.043L984.167 539.279C980.413 557.579 971.599 576.393 954.755 590.459C937.772 604.64 917.465 609.952 898.322 609.952H847.123C829.439 609.952 804.315 605.182 786.814 583.373C769.664 562.001 770.035 536.923 773.452 519.762L775.909 507.022C771.525 507.373 767.102 507.552 762.642 507.552C722.437 507.552 682.74 493.559 655.728 460.341C651.554 464.154 647.177 467.471 642.839 470.29L642.592 470.451L642.343 470.609C602.69 495.723 555.289 507.552 510.63 507.552C465.098 507.552 423.896 495.613 392.189 470.638C391.935 470.978 391.679 471.318 391.417 471.656C373.826 494.368 347.399 501.408 325.711 501.408H268.879C253.665 501.408 235.736 498.188 219.566 486.889C212.042 481.631 205.985 475.384 201.188 468.585C197.655 473.28 193.528 477.71 188.738 481.751C171.699 496.127 151.251 501.408 132.174 501.408H75.8541C58.031 501.408 33.1989 496.576 15.7164 475.12C-1.51095 453.977 -1.52152 428.98 1.55236 411.854L1.61779 411.49L59.5104 114.346C63.0331 95.3134 72.1032 76.3521 89.0563 62.3398C106.096 48.2565 126.454 43.0079 145.486 43.0078V93.0078C125.518 93.0079 112.207 103.76 108.623 123.728L50.7662 420.688L50.6071 421.617C47.5068 440.682 55.9237 451.075 74.9264 451.4L75.8541 451.408H132.174L133.105 451.4C152.54 451.07 164.998 440.344 168.526 420.688L186.959 327.504H208.974L237.134 428.88C241.166 444 251.648 451.181 268.09 451.402L268.879 451.408H325.711L326.83 451.396C350.153 450.926 361.935 435.712 353.871 414.544L313.934 308.56C354.382 290.128 382.542 257.872 391.758 210.256C407.506 129.992 352.69 93.5787 258.815 93.0146L256.59 93.0078V43.0078C308.466 43.0078 360.115 52.5277 397.174 82.334C423.195 103.262 437.92 130.644 442.675 161.522C477.857 141.294 518.858 130.048 561.318 130.048C604.308 130.048 643.595 139.727 673.593 161.241C681.441 166.87 688.488 173.212 694.642 180.17C727.668 147.887 769.998 130.048 816.915 130.048C839.517 130.048 860.94 134.705 880.09 143.994C893.377 138.14 907.273 136.192 919.827 136.192H971.026V186.192H919.827L918.896 186.198C899.477 186.45 887.523 194.616 884.499 209.232C868.371 190.584 845.792 180.37 818.23 180.056L816.915 180.048C754.451 180.048 696.594 225.616 678.674 318.8C660.242 411.984 700.178 457.552 762.642 457.552C790.802 457.552 817.939 447.312 842.003 428.368L822.547 529.232C818.515 548.888 826.886 559.614 846.195 559.944L847.123 559.952H898.322L899.254 559.944C918.38 559.619 930.757 549.226 934.988 530.161L935.186 529.232L996.114 216.912C999.642 197.256 991.263 186.53 971.954 186.2L971.026 186.192V136.192C984.47 136.192 1001.9 138.943 1017.16 149.503C1032.23 139.886 1049.15 136.192 1065.1 136.192V186.192L1064.17 186.2C1044.73 186.531 1032.27 197.256 1028.75 216.912L1006.73 329.04C990.982 409.812 1033.2 456.813 1122.37 457.543L1124.49 457.552C1215.11 457.552 1276.55 410.448 1292.43 329.04L1314.44 216.912C1317.97 197.256 1309.59 186.53 1290.28 186.2L1289.35 186.192V136.192C1297.16 136.192 1306.32 137.119 1315.61 139.965C1312.8 126.582 1312.81 112.492 1315.49 98.4668C1327.34 36.4756 1383.91 0 1438.84 0ZM561.318 180.048C465.574 180.048 384.678 250.192 384.678 345.424C384.17 410.448 428.521 456.823 508.729 457.544L510.63 457.552C546.415 457.552 583.687 448.125 614.145 429.272L615.59 428.368C636.07 415.056 636.07 397.136 619.686 385.36L604.327 375.12C593.063 367.44 582.822 368.976 564.902 376.656C554.15 381.264 542.374 383.824 531.623 383.824C506.535 383.824 491.686 367.952 491.686 343.376V338.768C506.022 346.448 526.502 351.056 552.102 351.056C620.71 351.056 663.207 315.216 671.911 270.672C672.935 265.552 673.446 260.944 673.446 256.336C673.446 212.816 633.51 180.048 561.318 180.048ZM1642.42 180.048C1546.67 180.048 1465.78 250.192 1465.78 345.424C1465.27 410.96 1510.32 457.552 1591.73 457.552C1627.51 457.552 1664.79 448.125 1695.24 429.272L1696.69 428.368C1717.17 415.056 1717.17 397.136 1700.79 385.36L1685.43 375.12C1674.16 367.44 1663.92 368.976 1646 376.656C1635.25 381.264 1623.47 383.824 1612.72 383.824C1587.63 383.824 1572.79 367.952 1572.79 343.376V338.768C1587.12 346.448 1607.6 351.056 1633.2 351.056C1701.81 351.056 1744.31 315.216 1753.01 270.672C1754.03 265.552 1754.55 260.944 1754.55 256.336C1754.55 213.156 1715.23 180.56 1644.1 180.054L1642.42 180.048ZM1386.62 186.192C1366.65 186.192 1353.85 196.944 1350.27 216.912L1310.33 420.688C1306.8 440.344 1315.18 451.07 1334.49 451.4L1335.42 451.408H1386.62L1387.55 451.4C1406.68 451.075 1419.05 440.682 1422.8 421.617L1422.97 420.688L1462.91 216.912C1466.49 196.944 1457.79 186.192 1437.82 186.192H1386.62ZM842.003 264.016C852.755 264.016 865.042 269.136 871.698 276.816L855.314 360.784C845.586 368.464 831.251 373.584 820.499 373.584L819.403 373.571C796.567 373.051 784.778 356.096 792.339 318.8C799.507 280.912 818.451 264.016 842.003 264.016ZM1238.15 186.192L1237.22 186.2C1217.79 186.531 1205.33 197.256 1201.8 216.912L1177.23 341.84C1173.64 361.808 1159.31 373.584 1140.87 373.584L1140.02 373.575C1122.16 373.214 1113.28 361.496 1116.81 341.84L1141.39 216.912C1144.91 197.256 1136.54 186.531 1117.23 186.2L1116.3 186.192V136.192C1133.84 136.192 1158.16 140.871 1175.59 161.459C1177.46 159.52 1179.46 157.647 1181.59 155.85C1198.63 141.473 1219.08 136.192 1238.15 136.192V186.192ZM537.255 291.152L536.011 291.145C523.209 290.991 511.879 288.464 502.951 284.496C509.376 266.506 522.609 254.61 537.255 251.201V291.152ZM545.959 250.192C560.806 250.192 571.046 255.824 571.047 267.6L571.036 268.314C570.597 283.214 556.407 291.152 537.255 291.152V251.201C540.115 250.535 543.03 250.192 545.959 250.192ZM1618.35 291.152L1617.11 291.145C1604.31 290.991 1592.98 288.464 1584.05 284.496C1590.48 266.506 1603.71 254.611 1618.35 251.202V291.152ZM1627.06 250.192C1641.91 250.192 1652.15 255.824 1652.15 267.6C1652.15 282.96 1637.81 291.152 1618.35 291.152V251.202C1621.22 250.536 1624.13 250.192 1627.06 250.192ZM243.791 179.024C267.854 179.024 279.631 188.24 275.535 210.256L275.334 211.302C270.94 233.054 255.19 241.488 231.503 241.488H203.342L215.63 179.024H243.791ZM1289.35 136.192V186.192H1238.15V136.192H1289.35ZM1116.3 136.192V186.192H1065.1V136.192H1116.3ZM1438.84 50C1404.03 50 1371.26 73.0404 1364.6 107.856L1364.45 108.67C1358.32 143.031 1381.77 165.712 1416.31 165.712C1450.86 165.712 1483.39 143.031 1490.39 108.67L1490.55 107.856C1497.16 73.3123 1474.02 50.3603 1439.66 50.0039L1438.84 50ZM256.59 43.0078V93.0078H145.486V43.0078H256.59Z" fill="black"/>
<path d="M187.34 327.096L168.908 420.28C165.324 440.248 152.524 451 132.556 451H76.236C56.268 451 47.564 440.248 51.148 420.28L109.004 123.32C112.588 103.352 125.9 92.6 145.868 92.6H256.972C352.204 92.6 408.012 128.952 392.14 209.848C382.924 257.464 354.764 289.72 314.316 308.152L354.252 414.136C362.444 435.64 350.156 451 326.092 451H269.26C252.364 451 241.612 443.832 237.516 428.472L209.356 327.096H187.34ZM231.884 241.08C255.948 241.08 271.82 232.376 275.916 209.848C280.012 187.832 268.236 178.616 244.172 178.616H216.012L203.724 241.08H231.884Z" fill="white"/>
<path d="M511.012 457.144C429.604 457.144 384.548 410.552 385.06 345.016C385.06 249.784 465.956 179.64 561.7 179.64C633.892 179.64 673.828 212.408 673.828 255.928C673.828 260.536 673.316 265.144 672.292 270.264C663.588 314.808 621.092 350.648 552.484 350.648C526.884 350.648 506.404 346.04 492.068 338.36V342.968C492.068 367.544 506.916 383.416 532.004 383.416C542.756 383.416 554.532 380.856 565.284 376.248C583.204 368.568 593.444 367.032 604.708 374.712L620.068 384.952C636.452 396.728 636.452 414.648 615.972 427.96C585.252 447.416 547.364 457.144 511.012 457.144ZM546.34 249.784C528.42 249.784 511.012 262.584 503.332 284.088C512.548 288.184 524.324 290.744 537.636 290.744C557.092 290.744 571.428 282.552 571.428 267.192C571.428 255.416 561.188 249.784 546.34 249.784Z" fill="white"/>
<path d="M679.056 318.392C696.976 225.208 754.832 179.64 817.296 179.64C845.456 179.64 868.496 189.88 884.88 208.824C887.952 193.976 900.24 185.784 920.208 185.784H971.408C991.376 185.784 1000.08 196.536 996.496 216.504L935.568 528.824C931.472 548.792 918.672 559.544 898.704 559.544H847.504C827.536 559.544 818.832 548.792 822.928 528.824L842.384 427.96C818.32 446.904 791.184 457.144 763.024 457.144C700.56 457.144 660.624 411.576 679.056 318.392ZM820.88 373.176C831.632 373.176 845.968 368.056 855.696 360.376L872.08 276.408C865.424 268.728 853.136 263.608 842.384 263.608C818.832 263.608 799.888 280.504 792.72 318.392C785.04 356.28 797.328 373.176 820.88 373.176Z" fill="white"/>
<path d="M1124.87 457.144C1034.25 457.144 991.24 410.04 1007.11 328.632L1029.13 216.504C1032.71 196.536 1045.51 185.784 1065.48 185.784H1116.68C1136.65 185.784 1145.35 196.536 1141.77 216.504L1117.19 341.432C1113.61 361.4 1122.82 373.176 1141.26 373.176C1159.69 373.176 1174.02 361.4 1177.61 341.432L1202.18 216.504C1205.77 196.536 1218.57 185.784 1238.54 185.784H1289.74C1309.7 185.784 1318.41 196.536 1314.82 216.504L1292.81 328.632C1276.94 410.04 1215.5 457.144 1124.87 457.144Z" fill="white"/>
<path d="M1350.65 216.504C1354.23 196.536 1367.03 185.784 1387 185.784H1438.2C1458.17 185.784 1466.87 196.536 1463.29 216.504L1423.35 420.28C1419.77 440.248 1406.97 451 1387 451H1335.8C1315.83 451 1307.13 440.248 1310.71 420.28L1350.65 216.504ZM1364.98 107.448C1371.64 72.632 1404.41 49.592 1439.22 49.592C1474.04 49.592 1497.59 72.632 1490.94 107.448C1484.28 142.264 1451.51 165.304 1416.7 165.304C1381.88 165.304 1358.33 142.264 1364.98 107.448Z" fill="white"/>
<path d="M1592.11 457.144C1510.7 457.144 1465.65 410.552 1466.16 345.016C1466.16 249.784 1547.06 179.64 1642.8 179.64C1714.99 179.64 1754.93 212.408 1754.93 255.928C1754.93 260.536 1754.42 265.144 1753.39 270.264C1744.69 314.808 1702.19 350.648 1633.58 350.648C1607.98 350.648 1587.5 346.04 1573.17 338.36V342.968C1573.17 367.544 1588.02 383.416 1613.1 383.416C1623.86 383.416 1635.63 380.856 1646.38 376.248C1664.3 368.568 1674.54 367.032 1685.81 374.712L1701.17 384.952C1717.55 396.728 1717.55 414.648 1697.07 427.96C1666.35 447.416 1628.46 457.144 1592.11 457.144ZM1627.44 249.784C1609.52 249.784 1592.11 262.584 1584.43 284.088C1593.65 288.184 1605.42 290.744 1618.74 290.744C1638.19 290.744 1652.53 282.552 1652.53 267.192C1652.53 255.416 1642.29 249.784 1627.44 249.784Z" fill="white"/>
<path d="M1903.52 214.456C1927.58 193.464 1960.86 179.64 1987.48 179.64C2019.23 179.64 2039.2 193.464 2047.9 218.552C2076.06 195 2109.34 179.64 2145.69 179.64C2197.92 179.64 2219.42 217.016 2207.13 279.992L2180 420.28C2176.41 440.248 2163.61 451 2143.64 451H2092.44C2072.48 451 2063.77 440.248 2067.36 420.28L2092.96 288.184C2096.54 271.288 2091.42 263.608 2078.62 263.608C2069.4 263.608 2058.14 269.24 2049.95 276.408L2021.79 420.28C2018.2 440.248 2005.4 451 1985.44 451H1934.24C1914.27 451 1905.56 440.248 1909.15 420.28L1934.75 288.184C1938.33 271.288 1933.21 263.608 1920.41 263.608C1911.2 263.608 1899.93 269.24 1891.74 276.408L1863.58 420.28C1860 440.248 1847.2 451 1827.23 451H1776.03C1756.06 451 1747.36 440.248 1750.94 420.28L1790.88 216.504C1794.46 196.536 1807.26 185.784 1827.23 185.784H1878.43C1898.4 185.784 1907.1 196.024 1903.52 214.456Z" fill="white"/>
</svg>
