<svg width="300" height="192" viewBox="0 0 300 192" fill="none" xmlns="http://www.w3.org/2000/svg">
<path fill-rule="evenodd" clip-rule="evenodd" d="M230.974 0C283.17 0 307.907 36.4056 297.765 89.6508C293.065 112.682 283.417 132.246 269.565 147.353L279.459 160.479C284.159 166.67 282.675 173.604 275.007 179.548L264.617 187.721C256.948 193.664 250.269 193.416 245.569 186.977L234.684 172.119C222.81 176.824 209.947 179.301 196.094 179.301C177.844 179.301 162.951 174.848 151.743 166.783C151.867 163.368 151.169 159.911 149.895 156.679L149.887 156.659L149.879 156.639L131.605 110.904C150.959 101.038 164.531 83.368 168.954 59.9999L168.953 59.999C171.658 46.221 170.747 33.8809 165.88 23.6378C183.25 8.63272 205.558 5.34242e-05 230.974 0ZM223.306 39.6252C201.537 39.6252 183.973 58.6943 178.036 89.6508C171.852 120.607 181.994 139.676 203.763 139.676C205.989 139.676 208.957 139.428 210.442 139.18L203.021 129.027C198.321 122.588 199.806 115.653 207.474 109.957L217.864 101.786C225.532 95.8421 231.964 96.3369 236.664 102.528L242.601 110.701C245.322 104.51 247.548 97.5755 249.28 89.6508C255.217 58.6944 245.074 39.6253 223.306 39.6252Z" fill="white"/>
<path d="M159.46 58.1986C155.007 81.7255 140.165 98.3182 119.138 105.748L140.907 160.231C144.618 169.642 139.423 176.329 128.786 176.329H107.264C99.8429 176.329 95.3902 173.109 93.1639 166.67L75.353 113.425H58.0368L48.3893 162.955C46.6577 171.623 41.2154 176.329 32.5574 176.329H11.2832C2.62518 176.329 -1.3328 171.623 0.398818 162.955L28.8468 16.3455C30.5784 7.67764 36.268 2.97226 44.926 2.97226H97.3692C143.133 2.97226 166.881 20.5555 159.46 58.1986ZM110.975 58.1986C113.696 45.0731 106.275 39.1294 90.4427 39.1294H72.3845L64.9633 77.2678H83.0215C98.8534 77.2678 108.501 71.5718 110.975 58.1986Z" fill="white"/>
</svg>
