<svg width="512" height="512" viewBox="0 0 512 512" fill="none" xmlns="http://www.w3.org/2000/svg">
<rect width="512" height="512" rx="64" fill="url(#paint0_radial_87_1800)"/>
<path fill-rule="evenodd" clip-rule="evenodd" d="M363.965 128C433.559 128 466.543 176.541 453.02 247.534C446.753 278.243 433.89 304.329 415.419 324.471L428.612 341.972C434.878 350.227 432.9 359.473 422.675 367.397L408.823 378.294C398.598 386.219 389.693 385.888 383.426 377.303L368.912 357.492C353.081 363.765 335.93 367.067 317.459 367.067C293.125 367.067 273.268 361.131 258.324 350.377C258.489 345.824 257.559 341.215 255.86 336.906L255.85 336.878L255.839 336.852L231.473 275.872C257.279 262.717 275.375 239.157 281.272 208L281.271 207.999C284.877 189.628 283.662 173.174 277.173 159.517C300.334 139.51 330.077 128 363.965 128ZM353.741 180.834C324.716 180.834 301.297 206.259 293.381 247.534C285.135 288.809 298.659 314.235 327.683 314.235C330.652 314.235 334.61 313.904 336.589 313.574L326.694 300.035C320.428 291.45 322.407 282.204 332.632 274.61L346.485 263.714C356.71 255.789 365.285 256.449 371.552 264.704L379.467 275.601C383.096 267.346 386.064 258.101 388.373 247.534C396.289 206.259 382.766 180.834 353.741 180.834Z" fill="white"/>
<path d="M268.613 205.598C262.676 236.967 242.886 259.091 214.851 268.997L243.876 341.642C248.823 354.189 241.897 363.105 227.714 363.105H199.019C189.124 363.105 183.187 358.812 180.218 350.227L156.471 279.233H133.382L120.519 345.274C118.21 356.831 110.954 363.105 99.4098 363.105H71.0443C59.5002 363.105 54.2229 356.831 56.5318 345.274L94.4624 149.794C96.7712 138.237 104.357 131.963 115.901 131.963H185.826C246.844 131.963 278.508 155.407 268.613 205.598ZM203.966 205.598C207.594 188.097 197.7 180.173 176.59 180.173H152.513L142.618 231.024H166.695C187.805 231.024 200.668 223.429 203.966 205.598Z" fill="white"/>
<defs>
<radialGradient id="paint0_radial_87_1800" cx="0" cy="0" r="1" gradientUnits="userSpaceOnUse" gradientTransform="translate(256 512) rotate(-90) scale(512)">
<stop stop-color="#9400D3"/>
<stop offset="1" stop-color="#4B0082"/>
</radialGradient>
</defs>
</svg>
